<?xml version="1.0" standalone="no"?>
<!DOCTYPE svg PUBLIC "-//W3C//DTD SVG 20010904//EN"
 "http://www.w3.org/TR/2001/REC-SVG-20010904/DTD/svg10.dtd">
<svg version="1.0" xmlns="http://www.w3.org/2000/svg"
 width="512.000000pt" height="512.000000pt" viewBox="0 0 512.000000 512.000000"
 preserveAspectRatio="xMidYMid meet">
<metadata>
Created by potrace 1.14, written by Peter Selinger 2001-2017
</metadata>
<g transform="translate(0.000000,512.000000) scale(0.100000,-0.100000)"
fill="#000000" stroke="none">
<path d="M2528 4695 c-2 -1 -50 -5 -108 -9 -135 -7 -171 -12 -312 -42 -612
-129 -1159 -548 -1445 -1110 -50 -99 -116 -254 -128 -306 l-7 -28 223 0 224 0
52 108 c86 177 180 309 323 453 174 175 363 300 581 385 221 86 391 118 624
118 295 1 526 -55 784 -187 451 -231 772 -646 885 -1145 38 -167 52 -367 35
-517 -15 -144 -20 -179 -24 -186 -3 -3 -7 -24 -11 -44 -15 -97 -114 -353 -177
-460 -190 -321 -424 -541 -742 -695 -161 -79 -341 -136 -485 -154 -25 -4 -58
-9 -75 -12 -43 -8 -289 -8 -360 0 -109 13 -129 17 -235 42 -490 119 -918 468
-1130 922 l-44 92 -224 0 -224 0 7 -27 c12 -51 77 -207 123 -298 56 -111 156
-267 230 -360 65 -83 255 -276 316 -322 24 -18 52 -41 63 -50 26 -22 36 -29
143 -99 197 -130 531 -264 741 -299 19 -3 45 -8 59 -10 27 -5 93 -14 150 -21
56 -6 330 -6 385 1 28 3 69 7 91 9 61 7 201 34 264 52 30 8 63 17 73 19 10 2
57 18 105 36 232 84 500 240 672 391 75 66 217 211 260 264 117 147 224 320
298 484 29 64 97 251 107 293 52 235 60 277 71 377 4 45 5 334 0 380 -30 306
-107 566 -246 826 -100 189 -211 337 -379 504 -137 137 -171 165 -321 265
-237 157 -458 251 -730 309 -141 30 -170 34 -290 41 -52 4 -116 8 -142 9 -26
2 -49 2 -50 1z"/>
<path d="M2133 3117 c-1 -161 -2 -303 -2 -317 l-1 -26 -942 1 c-519 0 -950 -1
-959 -3 -13 -3 -15 -31 -15 -212 -1 -182 1 -209 15 -212 9 -2 439 -3 956 -3
517 1 942 -2 945 -6 3 -4 5 -147 4 -318 0 -214 3 -308 10 -303 9 5 85 65 206
162 19 15 199 159 400 320 201 160 384 308 408 327 l43 36 -23 15 c-13 9 -25
18 -28 22 -3 3 -59 48 -125 100 -66 52 -122 97 -125 100 -9 9 -192 155 -245
196 -27 21 -55 42 -61 48 -6 6 -28 25 -50 41 -21 17 -67 54 -103 83 -37 29
-73 58 -81 65 -31 25 -205 161 -216 169 -7 5 -11 -80 -11 -285z"/>
</g>
</svg>
